<svg width="620" height="300" viewBox="0 0 620 300" fill="none" xmlns="http://www.w3.org/2000/svg">
<path d="M366.937 42.8584C419.154 -8.94521 504.519 -13.654 562.294 32.3857C592.635 56.5703 611.155 87.5478 617.809 125.617V125.618C618.208 127.878 618.955 130.132 619.499 132.3V167.974C614.271 193.834 605.681 218.177 589.446 239.44C541.823 301.805 455.461 317.227 389.074 275.031L389.073 275.03C384.974 272.437 380.977 269.109 375.317 269.129L374.728 269.12C371.814 269.034 369.404 268.303 367.671 266.88C365.836 265.373 364.692 263.034 364.566 259.662V259.661C364.46 256.868 365.134 254.602 366.494 252.967C367.852 251.334 369.944 250.27 372.792 249.97C376.108 249.62 378.595 250.338 380.405 251.866C382.227 253.404 383.433 255.819 384.06 258.996V258.999C384.324 260.301 384.756 261.607 385.406 263.995L385.454 264.173L385.606 264.276C427.317 292.825 472.71 300.002 520.975 281.967C581.579 259.349 619.185 197.603 611.783 135C604.044 69.5725 555.496 17.9186 490.487 9.62109C433.514 2.33224 386.809 22.0643 353.167 69.6172C331.313 100.507 317.492 135.547 301.207 169.209C286.19 200.253 271.617 231.414 246.569 256.263C193.993 308.446 108.25 312.815 50.5146 266.137H50.5137C36.928 255.143 25.6544 242.413 16.4111 227.768C13.7339 223.525 11.0344 219.512 6.12598 216.981C3.47412 215.61 1.82282 213.708 1.11328 211.513C0.402346 209.313 0.615156 206.753 1.81641 204.036C2.76365 201.919 4.18268 200.453 5.90332 199.671C7.62535 198.888 9.69854 198.767 11.9922 199.431C14.8537 200.269 17.069 201.703 18.3896 203.606C19.7018 205.498 20.1688 207.91 19.4404 210.799H19.4395C17.8055 217.304 20.3968 222.029 23.542 226.885C77.1272 309.703 197.172 313.943 256.254 235.12C277.796 206.385 291.432 173.472 306.585 141.438C323.184 106.362 338.715 70.8663 366.937 42.8584Z" fill="#6F77DA" stroke="white"/>
</svg>
