<svg width="611" height="300" viewBox="0 0 611 300" fill="none" xmlns="http://www.w3.org/2000/svg">
<path d="M373.758 37.3779C427.599 -10.7329 512.921 -11.0508 567.412 36.4473L568.693 37.5781C577.115 45.1136 585.076 53.0504 591.599 62.2725V62.2734C594.718 66.7076 598.147 70.508 603.662 72.582H603.663C606.172 73.5196 608.017 75.0306 609.048 76.9492C610.076 78.8635 610.322 81.238 609.533 83.9648C608.838 86.3714 607.594 88.2549 605.922 89.4736C604.253 90.6895 602.121 91.2707 599.593 91.0117H599.592C596.602 90.7113 594.257 89.5787 592.724 87.834C591.194 86.093 590.428 83.693 590.688 80.7656C591.204 74.9918 588.77 70.9402 585.861 66.8213V66.8203L585.228 65.9326C531.109 -9.21283 416.356 -11.0762 359.561 62.3398C336.423 92.2557 322.037 126.733 306.241 160.418L304.708 163.675C289.219 196.459 274.041 229.318 248.136 255.622L246.895 256.87C204.928 298.628 139.466 310.543 85.1855 286.684L83.9053 286.113L82.6094 285.521C55.4929 273.01 34.0305 254.295 17.8525 229.311V229.31L16.8721 227.768C14.6729 224.265 12.4247 220.626 8.28516 218.457L7.81738 218.223C5.03358 216.887 2.89457 215.143 1.77148 212.994C0.659896 210.867 0.506603 208.274 1.82715 205.136C2.93138 202.51 4.62902 200.868 6.65039 200.07C8.55341 199.32 10.7945 199.299 13.1816 199.986L13.6611 200.133C17.1682 201.278 19.0833 203.147 19.8965 205.456C20.7196 207.793 20.4502 210.683 19.3584 213.926C19.1795 214.441 19.0999 214.972 19.0391 215.526C18.9766 216.094 18.9355 216.67 18.8369 217.361L18.792 217.673L19.0107 217.818C68.49 309.712 201.045 318.7 260.41 231.063C282.56 198.375 297.354 162.067 314.104 126.793C329.652 94.0657 346.163 62.0441 373.758 37.3779Z" fill="#6F77DA" stroke="white"/>
</svg>
