<svg width="615" height="300" viewBox="0 0 615 300" fill="none" xmlns="http://www.w3.org/2000/svg">
<path d="M34.709 54.5166C81.9269 -2.69185 165.958 -15.8044 230.018 24.6172C232.185 25.9865 234.363 27.6129 236.67 28.8525C239.008 30.1089 241.56 31.0198 244.597 30.999C249.742 30.9606 254.304 34.4166 254.908 39.4268V39.4277C255.274 42.3718 254.625 44.7653 253.254 46.5225C251.88 48.2823 249.742 49.4571 247.034 49.8818H247.033C243.699 50.4059 241.207 49.7711 239.403 48.2852C237.7 46.882 236.542 44.664 235.911 41.749L235.792 41.1562C235.548 39.8544 235.115 38.5386 234.466 36.0381L234.419 35.8564L234.264 35.751L233.23 35.0518C189.485 5.6495 141.961 -1.30998 92.5742 20.4541C41.0317 43.165 11.4746 83.7981 7.90527 140.317C5.96161 170.895 11.7023 197.737 24.6641 220.521C37.6254 243.305 57.7903 262.002 84.6475 276.32C141.989 306.876 223.873 294.964 268.271 227.615C289.619 195.232 304.154 159.524 320.822 124.934C335.193 95.1244 350.049 65.6754 373.98 42.0244C430.39 -13.6994 523.562 -11.6173 580.211 43.9268H580.212C586.189 49.7831 591.673 56.0222 596.55 62.8408L597.517 64.2119C600.128 67.9715 603.3 70.5753 607.565 72.374C610.256 73.5066 612.262 75.1044 613.353 77.1084C614.436 79.0994 614.653 81.5579 613.642 84.501V84.502C612.706 87.235 611.054 89.2436 608.915 90.2949C606.78 91.3442 604.093 91.472 601.021 90.3203H601.021C596.744 88.7089 594.443 84.167 595.036 79.5674L595.103 79.1221C596.08 73.3314 593.27 69.2684 590.423 65.2197H590.422C542.021 -3.35133 434.357 -11.7094 376.305 48.9688C354.621 71.6313 340.543 99.2409 327.294 127.204C310.531 162.569 295.889 198.838 273.756 231.402C238.372 283.447 180.396 308.235 120.351 296.366C60.4385 284.56 14.755 238.602 2.20996 177.608V177.548L2.19922 177.497C1.24301 172.908 0.53125 168.322 0.53125 163.688V151.918C0.531306 123.119 8.08003 94.6564 23.3408 70.2773L24.0732 69.1201C27.2805 64.1118 30.8054 59.2243 34.708 54.5176L34.709 54.5166Z" fill="#6F77DA" stroke="white"/>
</svg>
