<svg width="74" height="52" viewBox="0 0 74 52" fill="none" xmlns="http://www.w3.org/2000/svg">
<path fillRule="evenodd" clipRule="evenodd" d="M27.568 0L0 37.9826L11.8168 37.9826L16.9628 30.3861H29.542V37.9826L37.9826 37.9826V0H27.568ZM29.542 22.7896V11.8168L21.9455 22.7896H29.542Z" fill="#00A650"/>
<path d="M45.33 38.0982C44.6258 38.0982 43.9988 37.9776 43.449 37.7365C42.8991 37.4953 42.465 37.1673 42.1467 36.7526C41.8284 36.3281 41.6499 35.8554 41.6113 35.3345H44.0567C44.0856 35.6143 44.2158 35.841 44.4474 36.0146C44.6789 36.1882 44.9634 36.2751 45.3011 36.2751C45.6098 36.2751 45.8461 36.2172 46.0101 36.1014C46.1837 35.976 46.2705 35.8169 46.2705 35.6239C46.2705 35.3924 46.1499 35.2236 45.9088 35.1175C45.6676 35.0017 45.277 34.8763 44.7368 34.7413C44.158 34.6062 43.6757 34.4664 43.2898 34.3217C42.9039 34.1673 42.5711 33.931 42.2914 33.6127C42.0117 33.2847 41.8718 32.8458 41.8718 32.2959C41.8718 31.8329 41.9972 31.4133 42.248 31.0371C42.5084 30.6512 42.8846 30.3474 43.3766 30.1255C43.8782 29.9036 44.4715 29.7927 45.1564 29.7927C46.1692 29.7927 46.9651 30.0435 47.5438 30.5451C48.1323 31.0467 48.4699 31.7123 48.5567 32.5419H46.2705C46.2319 32.2622 46.1065 32.0403 45.8943 31.8763C45.6917 31.7123 45.4216 31.6303 45.084 31.6303C44.7946 31.6303 44.5728 31.6882 44.4184 31.804C44.2641 31.9101 44.1869 32.0596 44.1869 32.2525C44.1869 32.484 44.3075 32.6577 44.5486 32.7734C44.7995 32.8892 45.1853 33.0049 45.7062 33.1207C46.3043 33.275 46.7914 33.4294 47.1676 33.5837C47.5438 33.7284 47.8718 33.9696 48.1516 34.3072C48.441 34.6352 48.5905 35.0789 48.6001 35.6384C48.6001 36.1111 48.4651 36.5355 48.195 36.9117C47.9345 37.2783 47.5535 37.5677 47.0519 37.7799C46.5599 37.9921 45.986 38.0982 45.33 38.0982Z" fill="#00A650"/>
<path d="M49.6219 33.931C49.6219 33.1014 49.7763 32.3731 50.085 31.7461C50.4033 31.1191 50.8325 30.6368 51.3727 30.2991C51.9129 29.9615 52.5158 29.7927 53.1814 29.7927C53.7506 29.7927 54.2474 29.9085 54.6718 30.14C55.1059 30.3715 55.4387 30.6753 55.6702 31.0515V29.9085H58.1445V37.9825H55.6702V36.8394C55.429 37.2156 55.0914 37.5194 54.6573 37.751C54.2329 37.9825 53.7361 38.0982 53.167 38.0982C52.511 38.0982 51.9129 37.9294 51.3727 37.5918C50.8325 37.2445 50.4033 36.7574 50.085 36.1304C49.7763 35.4937 49.6219 34.7606 49.6219 33.931ZM55.6702 33.9455C55.6702 33.3281 55.4966 32.8409 55.1493 32.484C54.8117 32.1271 54.3969 31.9487 53.9049 31.9487C53.413 31.9487 52.9933 32.1271 52.6461 32.484C52.3084 32.8313 52.1396 33.3136 52.1396 33.931C52.1396 34.5484 52.3084 35.0403 52.6461 35.4069C52.9933 35.7638 53.413 35.9423 53.9049 35.9423C54.3969 35.9423 54.8117 35.7638 55.1493 35.4069C55.4966 35.05 55.6702 34.5628 55.6702 33.9455Z" fill="#00A650"/>
<path d="M70.2369 29.8216C71.2401 29.8216 72.0359 30.1255 72.6244 30.7332C73.2224 31.3409 73.5215 32.185 73.5215 33.2654V37.9825H71.0616V33.5982C71.0616 33.0773 70.9218 32.677 70.642 32.3972C70.3719 32.1078 69.9957 31.9631 69.5134 31.9631C69.0311 31.9631 68.65 32.1078 68.3703 32.3972C68.1002 32.677 67.9652 33.0773 67.9652 33.5982V37.9825H65.5053V33.5982C65.5053 33.0773 65.3655 32.677 65.0857 32.3972C64.8156 32.1078 64.4394 31.9631 63.9571 31.9631C63.4748 31.9631 63.0937 32.1078 62.814 32.3972C62.5439 32.677 62.4088 33.0773 62.4088 33.5982V37.9825H59.9345V29.9085H62.4088V30.9213C62.6596 30.5837 62.9876 30.3184 63.3928 30.1255C63.7979 29.9229 64.2561 29.8216 64.7674 29.8216C65.3751 29.8216 65.9153 29.9519 66.388 30.2123C66.8703 30.4728 67.2465 30.8441 67.5166 31.3265C67.7963 30.8827 68.1774 30.521 68.6597 30.2413C69.142 29.9615 69.6677 29.8216 70.2369 29.8216Z" fill="#00A650"/>
<path d="M1.69007 50.3367C1.37251 50.3367 1.08539 50.2828 0.828724 50.1749C0.576409 50.0671 0.376297 49.9117 0.228388 49.7089C0.0804797 49.5062 0.00435025 49.2667 0 48.9906H0.978807C0.991858 49.1761 1.05711 49.3228 1.17457 49.4306C1.29638 49.5385 1.46169 49.5924 1.6705 49.5924C1.88366 49.5924 2.05115 49.5428 2.17295 49.4436C2.29476 49.34 2.35566 49.2063 2.35566 49.0423C2.35566 48.9086 2.31434 48.7986 2.23168 48.7123C2.14903 48.626 2.04462 48.5591 1.91846 48.5116C1.79666 48.4599 1.627 48.4038 1.40948 48.3434C1.11367 48.2571 0.872226 48.1729 0.685165 48.091C0.502455 48.0047 0.34367 47.8774 0.208812 47.7091C0.0783046 47.5365 0.0130508 47.3078 0.0130508 47.0231C0.0130508 46.7556 0.0804797 46.5226 0.215338 46.3241C0.350196 46.1256 0.539432 45.9746 0.783046 45.8711C1.02666 45.7632 1.30508 45.7093 1.6183 45.7093C2.08812 45.7093 2.46877 45.8236 2.76024 46.0523C3.05605 46.2767 3.21919 46.5916 3.24964 46.9972H2.24473C2.23603 46.8419 2.1686 46.7146 2.04244 46.6153C1.92064 46.5118 1.7575 46.46 1.55304 46.46C1.37468 46.46 1.23112 46.5053 1.12237 46.5959C1.01796 46.6865 0.965757 46.8181 0.965757 46.9907C0.965757 47.1115 1.00491 47.2129 1.08321 47.2949C1.16587 47.3726 1.26592 47.4373 1.38338 47.4891C1.50519 47.5365 1.67485 47.5926 1.89236 47.6573C2.18818 47.7436 2.42962 47.8299 2.61668 47.9162C2.80374 48.0025 2.9647 48.1319 3.09956 48.3045C3.23441 48.4771 3.30184 48.7036 3.30184 48.9841C3.30184 49.2257 3.23877 49.4501 3.11261 49.6572C2.98645 49.8643 2.80156 50.0304 2.55795 50.1555C2.31434 50.2763 2.02504 50.3367 1.69007 50.3367Z" fill="#00A650"/>
<path d="M7.45443 48.421C7.45443 48.5505 7.44573 48.667 7.42833 48.7705H4.78555C4.8073 49.0294 4.89866 49.2322 5.05962 49.3789C5.22058 49.5256 5.41851 49.5989 5.65343 49.5989C5.99275 49.5989 6.23419 49.4544 6.37775 49.1653H7.36308C7.25867 49.5105 7.05856 49.7952 6.76274 50.0196C6.46693 50.2396 6.10368 50.3497 5.673 50.3497C5.32498 50.3497 5.01177 50.2742 4.73335 50.1231C4.45928 49.9678 4.24395 49.7499 4.08734 49.4695C3.93508 49.189 3.85895 48.8654 3.85895 48.4987C3.85895 48.1276 3.93508 47.8019 4.08734 47.5214C4.2396 47.241 4.45276 47.0252 4.72682 46.8742C5.00089 46.7232 5.31628 46.6477 5.673 46.6477C6.01667 46.6477 6.32337 46.7211 6.59308 46.8678C6.86715 47.0145 7.07814 47.2237 7.22605 47.4955C7.3783 47.763 7.45443 48.0715 7.45443 48.421ZM6.50825 48.1621C6.5039 47.9292 6.41907 47.7436 6.25376 47.6056C6.08845 47.4632 5.88617 47.392 5.6469 47.392C5.42069 47.392 5.22928 47.461 5.07267 47.5991C4.92041 47.7328 4.82688 47.9205 4.79208 48.1621H6.50825Z" fill="#00A650"/>
<path d="M7.88633 48.4987C7.88633 48.1276 7.96246 47.804 8.11472 47.5279C8.26698 47.2474 8.47797 47.0317 8.74768 46.8807C9.0174 46.7254 9.32627 46.6477 9.67429 46.6477C10.1224 46.6477 10.4921 46.7599 10.7836 46.9843C11.0794 47.2043 11.2774 47.515 11.3774 47.9162H10.3921C10.3399 47.7609 10.2507 47.6401 10.1245 47.5538C10.0027 47.4632 9.85047 47.4179 9.66776 47.4179C9.40675 47.4179 9.20011 47.5128 9.04785 47.7026C8.89559 47.8882 8.81946 48.1535 8.81946 48.4987C8.81946 48.8395 8.89559 49.1049 9.04785 49.2947C9.20011 49.4803 9.40675 49.573 9.66776 49.573C10.0375 49.573 10.279 49.4091 10.3921 49.0812H11.3774C11.2774 49.4695 11.0794 49.778 10.7836 50.0067C10.4878 50.2353 10.118 50.3497 9.67429 50.3497C9.32627 50.3497 9.0174 50.2742 8.74768 50.1231C8.47797 49.9678 8.26698 49.7521 8.11472 49.476C7.96246 49.1955 7.88633 48.8697 7.88633 48.4987Z" fill="#00A650"/>
<path d="M15.4594 46.706V50.2914H14.5394V49.8384C14.4219 49.9937 14.2675 50.1167 14.0761 50.2073C13.889 50.2936 13.6845 50.3367 13.4627 50.3367C13.1799 50.3367 12.9298 50.2785 12.7123 50.162C12.4947 50.0412 12.3229 49.8664 12.1968 49.6378C12.0749 49.4048 12.014 49.1286 12.014 48.8093V46.706H12.9276V48.6799C12.9276 48.9647 12.9994 49.1847 13.1429 49.34C13.2865 49.4911 13.4823 49.5666 13.7302 49.5666C13.9825 49.5666 14.1805 49.4911 14.324 49.34C14.4676 49.1847 14.5394 48.9647 14.5394 48.6799V46.706H15.4594Z" fill="#00A650"/>
<path d="M17.2744 47.2625C17.3918 47.0727 17.5441 46.9238 17.7311 46.816C17.9226 46.7081 18.1401 46.6542 18.3837 46.6542V47.6056H18.1422C17.8551 47.6056 17.6376 47.6724 17.4897 47.8062C17.3461 47.9399 17.2744 48.1729 17.2744 48.5052V50.2914H16.3608V46.706H17.2744V47.2625Z" fill="#00A650"/>
<path d="M19.4623 46.2788C19.3014 46.2788 19.1665 46.2292 19.0577 46.13C18.9533 46.0264 18.9011 45.8991 18.9011 45.7481C18.9011 45.5971 18.9533 45.472 19.0577 45.3727C19.1665 45.2692 19.3014 45.2174 19.4623 45.2174C19.6233 45.2174 19.756 45.2692 19.8604 45.3727C19.9691 45.472 20.0235 45.5971 20.0235 45.7481C20.0235 45.8991 19.9691 46.0264 19.8604 46.13C19.756 46.2292 19.6233 46.2788 19.4623 46.2788ZM19.9126 46.706V50.2914H18.999V46.706H19.9126Z" fill="#00A650"/>
<path d="M21.8788 47.4502V49.1847C21.8788 49.3055 21.9071 49.394 21.9636 49.4501C22.0245 49.5018 22.1246 49.5277 22.2638 49.5277H22.6879V50.2914H22.1137C21.3437 50.2914 20.9587 49.9204 20.9587 49.1782V47.4502H20.528V46.706H20.9587V45.8193H21.8788V46.706H22.6879V47.4502H21.8788Z" fill="#00A650"/>
<path d="M23.8083 46.2788C23.6474 46.2788 23.5125 46.2292 23.4037 46.13C23.2993 46.0264 23.2471 45.8991 23.2471 45.7481C23.2471 45.5971 23.2993 45.472 23.4037 45.3727C23.5125 45.2692 23.6474 45.2174 23.8083 45.2174C23.9693 45.2174 24.102 45.2692 24.2064 45.3727C24.3151 45.472 24.3695 45.5971 24.3695 45.7481C24.3695 45.8991 24.3151 46.0264 24.2064 46.13C24.102 46.2292 23.9693 46.2788 23.8083 46.2788ZM24.2586 46.706V50.2914H23.345V46.706H24.2586Z" fill="#00A650"/>
<path d="M28.5217 48.421C28.5217 48.5505 28.513 48.667 28.4956 48.7705H25.8529C25.8746 49.0294 25.966 49.2322 26.1269 49.3789C26.2879 49.5256 26.4858 49.5989 26.7207 49.5989C27.06 49.5989 27.3015 49.4544 27.445 49.1653H28.4304C28.326 49.5105 28.1259 49.7952 27.83 50.0196C27.5342 50.2396 27.171 50.3497 26.7403 50.3497C26.3923 50.3497 26.0791 50.2742 25.8006 50.1231C25.5266 49.9678 25.3112 49.7499 25.1546 49.4695C25.0024 49.189 24.9262 48.8654 24.9262 48.4987C24.9262 48.1276 25.0024 47.8019 25.1546 47.5214C25.3069 47.241 25.5201 47.0252 25.7941 46.8742C26.0682 46.7232 26.3836 46.6477 26.7403 46.6477C27.084 46.6477 27.3907 46.7211 27.6604 46.8678C27.9344 47.0145 28.1454 47.2237 28.2933 47.4955C28.4456 47.763 28.5217 48.0715 28.5217 48.421ZM27.5756 48.1621C27.5712 47.9292 27.4864 47.7436 27.3211 47.6056C27.1558 47.4632 26.9535 47.392 26.7142 47.392C26.488 47.392 26.2966 47.461 26.14 47.5991C25.9877 47.7328 25.8942 47.9205 25.8594 48.1621H27.5756Z" fill="#00A650"/>
<path d="M30.5719 50.3497C30.2761 50.3497 30.0107 50.2979 29.7758 50.1943C29.5409 50.0865 29.3539 49.9419 29.2146 49.7607C29.0798 49.5795 29.0058 49.3789 28.9928 49.1588H29.9129C29.9303 49.2969 29.9977 49.4112 30.1151 49.5018C30.237 49.5924 30.387 49.6378 30.5654 49.6378C30.7394 49.6378 30.8743 49.6032 30.97 49.5342C31.07 49.4652 31.1201 49.3767 31.1201 49.2689C31.1201 49.1524 31.0592 49.0661 30.9373 49.01C30.8199 48.9496 30.6307 48.8848 30.3696 48.8158C30.0999 48.7511 29.8781 48.6842 29.7041 48.6152C29.5344 48.5461 29.3865 48.4404 29.2603 48.2981C29.1385 48.1557 29.0776 47.9637 29.0776 47.7221C29.0776 47.5236 29.1342 47.3424 29.2473 47.1784C29.3647 47.0145 29.53 46.885 29.7432 46.7901C29.9607 46.6952 30.2152 46.6477 30.5067 46.6477C30.9373 46.6477 31.281 46.7556 31.5377 46.9713C31.7943 47.1827 31.9357 47.4696 31.9618 47.8321H31.0874C31.0744 47.6897 31.0135 47.5775 30.9047 47.4955C30.8003 47.4092 30.6589 47.3661 30.4806 47.3661C30.3153 47.3661 30.1869 47.3963 30.0956 47.4567C30.0086 47.5171 29.9651 47.6012 29.9651 47.7091C29.9651 47.8299 30.026 47.9227 30.1478 47.9874C30.2696 48.0478 30.4588 48.1104 30.7155 48.1751C30.9765 48.2398 31.1918 48.3067 31.3615 48.3757C31.5312 48.4448 31.6769 48.5526 31.7987 48.6993C31.9249 48.8417 31.9901 49.0315 31.9945 49.2689C31.9945 49.476 31.9357 49.6615 31.8183 49.8254C31.7052 49.9894 31.5399 50.1188 31.3223 50.2138C31.1092 50.3044 30.859 50.3497 30.5719 50.3497Z" fill="#00A650"/>
<path d="M34.0774 48.0262C34.0774 47.5818 34.1774 47.1849 34.3776 46.8354C34.582 46.4816 34.8583 46.2076 35.2063 46.0135C35.5586 45.815 35.9523 45.7157 36.3874 45.7157C36.8963 45.7157 37.3423 45.8452 37.7251 46.1041C38.1079 46.3629 38.3754 46.7211 38.5277 47.1784H37.4771C37.3727 46.9627 37.2248 46.8009 37.0334 46.693C36.8463 46.5851 36.6288 46.5312 36.3808 46.5312C36.1155 46.5312 35.8784 46.5938 35.6696 46.7189C35.4651 46.8397 35.3042 47.0123 35.1867 47.2367C35.0736 47.461 35.017 47.7242 35.017 48.0262C35.017 48.3239 35.0736 48.5871 35.1867 48.8158C35.3042 49.0402 35.4651 49.2149 35.6696 49.34C35.8784 49.4609 36.1155 49.5213 36.3808 49.5213C36.6288 49.5213 36.8463 49.4673 37.0334 49.3595C37.2248 49.2473 37.3727 49.0833 37.4771 48.8676H38.5277C38.3754 49.3293 38.1079 49.6895 37.7251 49.9484C37.3466 50.203 36.9007 50.3303 36.3874 50.3303C35.9523 50.3303 35.5586 50.2332 35.2063 50.039C34.8583 49.8405 34.582 49.5666 34.3776 49.2171C34.1774 48.8676 34.0774 48.4706 34.0774 48.0262Z" fill="#00A650"/>
<path d="M40.9132 50.3497C40.5652 50.3497 40.252 50.2742 39.9736 50.1231C39.6952 49.9678 39.4755 49.7499 39.3145 49.4695C39.1579 49.189 39.0796 48.8654 39.0796 48.4987C39.0796 48.1319 39.1601 47.8083 39.321 47.5279C39.4863 47.2474 39.7104 47.0317 39.9932 46.8807C40.2759 46.7254 40.5913 46.6477 40.9393 46.6477C41.2874 46.6477 41.6027 46.7254 41.8855 46.8807C42.1683 47.0317 42.3901 47.2474 42.5511 47.5279C42.7164 47.8083 42.7991 48.1319 42.7991 48.4987C42.7991 48.8654 42.7142 49.189 42.5446 49.4695C42.3793 49.7499 42.1531 49.9678 41.8659 50.1231C41.5832 50.2742 41.2656 50.3497 40.9132 50.3497ZM40.9132 49.5601C41.0785 49.5601 41.233 49.5213 41.3765 49.4436C41.5244 49.3616 41.6419 49.2408 41.7289 49.0812C41.8159 48.9215 41.8594 48.7274 41.8594 48.4987C41.8594 48.1578 41.7681 47.8968 41.5853 47.7156C41.407 47.5301 41.1873 47.4373 40.9263 47.4373C40.6653 47.4373 40.4456 47.5301 40.2672 47.7156C40.0932 47.8968 40.0062 48.1578 40.0062 48.4987C40.0062 48.8395 40.091 49.1027 40.2607 49.2883C40.4347 49.4695 40.6522 49.5601 40.9132 49.5601Z" fill="#00A650"/>
<path d="M44.3827 47.2625C44.5002 47.0727 44.6525 46.9238 44.8395 46.816C45.0309 46.7081 45.2484 46.6542 45.4921 46.6542V47.6056H45.2506C44.9635 47.6056 44.746 47.6724 44.5981 47.8062C44.4545 47.9399 44.3827 48.1729 44.3827 48.5052V50.2914H43.4692V46.706H44.3827V47.2625Z" fill="#00A650"/>
<path d="M47.0209 47.2237C47.1384 47.0598 47.2994 46.9238 47.5038 46.816C47.7126 46.7038 47.9497 46.6477 48.2151 46.6477C48.524 46.6477 48.8024 46.7232 49.0503 46.8742C49.3026 47.0252 49.5006 47.241 49.6441 47.5214C49.792 47.7976 49.866 48.119 49.866 48.4857C49.866 48.8525 49.792 49.1782 49.6441 49.463C49.5006 49.7435 49.3026 49.9613 49.0503 50.1167C48.8024 50.272 48.524 50.3497 48.2151 50.3497C47.9497 50.3497 47.7148 50.2957 47.5103 50.1879C47.3102 50.08 47.1471 49.9441 47.0209 49.7801V52H46.1074V46.706H47.0209V47.2237ZM48.9329 48.4857C48.9329 48.27 48.8872 48.0845 48.7958 47.9292C48.7088 47.7695 48.5914 47.6487 48.4435 47.5667C48.2999 47.4847 48.1433 47.4438 47.9736 47.4438C47.8083 47.4438 47.6517 47.4869 47.5038 47.5732C47.3603 47.6552 47.2428 47.776 47.1514 47.9356C47.0644 48.0953 47.0209 48.283 47.0209 48.4987C47.0209 48.7144 47.0644 48.9021 47.1514 49.0617C47.2428 49.2214 47.3603 49.3444 47.5038 49.4306C47.6517 49.5126 47.8083 49.5536 47.9736 49.5536C48.1433 49.5536 48.2999 49.5105 48.4435 49.4242C48.5914 49.3379 48.7088 49.2149 48.7958 49.0553C48.8872 48.8956 48.9329 48.7058 48.9329 48.4857Z" fill="#00A650"/>
<path d="M52.1351 50.3497C51.7871 50.3497 51.4739 50.2742 51.1954 50.1231C50.917 49.9678 50.6973 49.7499 50.5364 49.4695C50.3798 49.189 50.3015 48.8654 50.3015 48.4987C50.3015 48.1319 50.382 47.8083 50.5429 47.5279C50.7082 47.2474 50.9323 47.0317 51.215 46.8807C51.4978 46.7254 51.8132 46.6477 52.1612 46.6477C52.5092 46.6477 52.8246 46.7254 53.1074 46.8807C53.3902 47.0317 53.612 47.2474 53.773 47.5279C53.9383 47.8083 54.0209 48.1319 54.0209 48.4987C54.0209 48.8654 53.9361 49.189 53.7664 49.4695C53.6011 49.7499 53.3749 49.9678 53.0878 50.1231C52.805 50.2742 52.4875 50.3497 52.1351 50.3497ZM52.1351 49.5601C52.3004 49.5601 52.4548 49.5213 52.5984 49.4436C52.7463 49.3616 52.8638 49.2408 52.9508 49.0812C53.0378 48.9215 53.0813 48.7274 53.0813 48.4987C53.0813 48.1578 52.9899 47.8968 52.8072 47.7156C52.6289 47.5301 52.4092 47.4373 52.1482 47.4373C51.8871 47.4373 51.6674 47.5301 51.4891 47.7156C51.3151 47.8968 51.2281 48.1578 51.2281 48.4987C51.2281 48.8395 51.3129 49.1027 51.4826 49.2883C51.6566 49.4695 51.8741 49.5601 52.1351 49.5601Z" fill="#00A650"/>
<path d="M55.6046 47.2625C55.7221 47.0727 55.8743 46.9238 56.0614 46.816C56.2528 46.7081 56.4703 46.6542 56.7139 46.6542V47.6056H56.4725C56.1854 47.6056 55.9679 47.6724 55.82 47.8062C55.6764 47.9399 55.6046 48.1729 55.6046 48.5052V50.2914H54.6911V46.706H55.6046V47.2625Z" fill="#00A650"/>
<path d="M57.0943 48.4857C57.0943 48.1233 57.1661 47.8019 57.3097 47.5214C57.4576 47.241 57.6555 47.0252 57.9035 46.8742C58.1558 46.7232 58.4364 46.6477 58.7453 46.6477C59.015 46.6477 59.2499 46.7016 59.45 46.8095C59.6545 46.9174 59.8176 47.0533 59.9394 47.2172V46.706H60.8595V50.2914H59.9394V49.7672C59.822 49.9355 59.6588 50.0757 59.45 50.1879C59.2455 50.2957 59.0085 50.3497 58.7387 50.3497C58.4342 50.3497 58.1558 50.272 57.9035 50.1167C57.6555 49.9613 57.4576 49.7435 57.3097 49.463C57.1661 49.1782 57.0943 48.8525 57.0943 48.4857ZM59.9394 48.4987C59.9394 48.2786 59.8959 48.091 59.8089 47.9356C59.7219 47.776 59.6044 47.6552 59.4565 47.5732C59.3086 47.4869 59.1498 47.4438 58.9802 47.4438C58.8105 47.4438 58.6539 47.4847 58.5104 47.5667C58.3668 47.6487 58.2493 47.7695 58.158 47.9292C58.071 48.0845 58.0275 48.27 58.0275 48.4857C58.0275 48.7015 58.071 48.8913 58.158 49.0553C58.2493 49.2149 58.3668 49.3379 58.5104 49.4242C58.6583 49.5105 58.8149 49.5536 58.9802 49.5536C59.1498 49.5536 59.3086 49.5126 59.4565 49.4306C59.6044 49.3444 59.7219 49.2235 59.8089 49.0682C59.8959 48.9086 59.9394 48.7187 59.9394 48.4987Z" fill="#00A650"/>
<path d="M62.8154 47.4502V49.1847C62.8154 49.3055 62.8437 49.394 62.9002 49.4501C62.9611 49.5018 63.0612 49.5277 63.2004 49.5277H63.6245V50.2914H63.0503C62.2803 50.2914 61.8953 49.9204 61.8953 49.1782V47.4502H61.4646V46.706H61.8953V45.8193H62.8154V46.706H63.6245V47.4502H62.8154Z" fill="#00A650"/>
<path d="M64.7449 46.2788C64.5839 46.2788 64.4491 46.2292 64.3403 46.13C64.2359 46.0264 64.1837 45.8991 64.1837 45.7481C64.1837 45.5971 64.2359 45.472 64.3403 45.3727C64.4491 45.2692 64.5839 45.2174 64.7449 45.2174C64.9059 45.2174 65.0385 45.2692 65.1429 45.3727C65.2517 45.472 65.3061 45.5971 65.3061 45.7481C65.3061 45.8991 65.2517 46.0264 65.1429 46.13C65.0385 46.2292 64.9059 46.2788 64.7449 46.2788ZM65.1951 46.706V50.2914H64.2816V46.706H65.1951Z" fill="#00A650"/>
<path d="M67.703 50.3497C67.355 50.3497 67.0417 50.2742 66.7633 50.1231C66.4849 49.9678 66.2652 49.7499 66.1043 49.4695C65.9477 49.189 65.8694 48.8654 65.8694 48.4987C65.8694 48.1319 65.9498 47.8083 66.1108 47.5279C66.2761 47.2474 66.5001 47.0317 66.7829 46.8807C67.0657 46.7254 67.3811 46.6477 67.7291 46.6477C68.0771 46.6477 68.3925 46.7254 68.6753 46.8807C68.958 47.0317 69.1799 47.2474 69.3409 47.5279C69.5062 47.8083 69.5888 48.1319 69.5888 48.4987C69.5888 48.8654 69.504 49.189 69.3343 49.4695C69.169 49.7499 68.9428 49.9678 68.6557 50.1231C68.3729 50.2742 68.0554 50.3497 67.703 50.3497ZM67.703 49.5601C67.8683 49.5601 68.0227 49.5213 68.1663 49.4436C68.3142 49.3616 68.4316 49.2408 68.5187 49.0812C68.6057 48.9215 68.6492 48.7274 68.6492 48.4987C68.6492 48.1578 68.5578 47.8968 68.3751 47.7156C68.1967 47.5301 67.9771 47.4373 67.716 47.4373C67.455 47.4373 67.2353 47.5301 67.057 47.7156C66.883 47.8968 66.796 48.1578 66.796 48.4987C66.796 48.8395 66.8808 49.1027 67.0504 49.2883C67.2245 49.4695 67.442 49.5601 67.703 49.5601Z" fill="#00A650"/>
<path d="M72.2622 46.6542C72.6929 46.6542 73.0409 46.7901 73.3063 47.0619C73.5717 47.3294 73.7043 47.7048 73.7043 48.188V50.2914H72.7908V48.311C72.7908 48.0262 72.719 47.8083 72.5755 47.6573C72.4319 47.502 72.2361 47.4243 71.9882 47.4243C71.7359 47.4243 71.5357 47.502 71.3878 47.6573C71.2443 47.8083 71.1725 48.0262 71.1725 48.311V50.2914H70.2589V46.706H71.1725V47.1525C71.2943 46.9972 71.4487 46.8764 71.6358 46.7901C71.8272 46.6995 72.036 46.6542 72.2622 46.6542Z" fill="#00A650"/>
</svg>
